<svg width="20" height="20" viewBox="0 0 20 20" fill="none" xmlns="http://www.w3.org/2000/svg">
<path d="M1.66668 14.5833H3.75C4.67047 14.5833 5.41668 15.3294 5.41668 16.2499V18.3333C5.41668 19.2538 4.67047 19.9999 3.75 19.9999H1.66668C0.746211 19.9999 0 19.2538 0 18.3333V16.2499C0 15.3295 0.746211 14.5833 1.66668 14.5833Z" fill="white" fill-opacity="0.96"/>
<path d="M19.2651 14.8683C18.9901 14.682 18.6655 14.5827 18.3334 14.5833H16.2501C15.3296 14.5833 14.5834 15.3294 14.5834 16.2499V18.3333C14.5834 19.2538 15.3296 19.9999 16.2501 19.9999H18.3334C19.2539 19.9999 20.0001 19.2538 20.0001 18.3333V16.2499C20 15.6958 19.7245 15.178 19.2651 14.8683Z" fill="white" fill-opacity="0.96"/>
<path d="M1.66668 7.29175H3.75C4.67047 7.29175 5.41668 8.03796 5.41668 8.95843V11.0417C5.41668 11.9622 4.67047 12.7084 3.75 12.7084H1.66668C0.746211 12.7084 0 11.9622 0 11.0417V8.95843C0 8.03792 0.746211 7.29175 1.66668 7.29175Z" fill="white" fill-opacity="0.96"/>
<path d="M19.2651 7.57675C18.9901 7.3905 18.6655 7.2912 18.3334 7.29175H16.2501C15.3296 7.29175 14.5834 8.03796 14.5834 8.95843V11.0418C14.5834 11.9622 15.3296 12.7084 16.2501 12.7084H18.3334C19.2538 12.7084 20.0001 11.9622 20.0001 11.0418V8.95843C20 8.40429 19.7245 7.88648 19.2651 7.57675Z" fill="white" fill-opacity="0.96"/>
<path d="M1.66668 0H3.75C4.67047 0 5.41668 0.746211 5.41668 1.66668V3.75C5.41668 4.67047 4.67047 5.41668 3.75 5.41668H1.66668C0.746211 5.41668 0 4.67047 0 3.75V1.66668C0 0.746211 0.746211 0 1.66668 0Z" fill="white" fill-opacity="0.96"/>
<path d="M11.9733 14.8683C11.6983 14.682 11.3737 14.5827 11.0416 14.5833H8.95831C8.03784 14.5833 7.29163 15.3294 7.29163 16.2499V18.3333C7.29163 19.2537 8.03784 19.9999 8.95831 19.9999H11.0416C11.9621 19.9999 12.7083 19.2538 12.7083 18.3333V16.2499C12.7082 15.6958 12.4328 15.178 11.9733 14.8683Z" fill="white" fill-opacity="0.96"/>
<path d="M11.9733 7.57675C11.6983 7.3905 11.3737 7.2912 11.0416 7.29175H8.95831C8.03784 7.29175 7.29163 8.03796 7.29163 8.95843V11.0418C7.29163 11.9622 8.03784 12.7084 8.95831 12.7084H11.0416C11.9621 12.7084 12.7083 11.9622 12.7083 11.0418V8.95843C12.7082 8.40429 12.4328 7.88648 11.9733 7.57675Z" fill="white" fill-opacity="0.96"/>
<path d="M11.9733 0.285002C11.6983 0.0987523 11.3737 -0.000544628 11.0416 2.24682e-06H8.95831C8.03784 2.24682e-06 7.29163 0.746213 7.29163 1.66668V3.75C7.29163 4.67047 8.03784 5.41668 8.95831 5.41668H11.0416C11.9621 5.41668 12.7083 4.67047 12.7083 3.75V1.66668C12.7082 1.11258 12.4328 0.594729 11.9733 0.285002Z" fill="white" fill-opacity="0.96"/>
<path d="M19.7151 0.735C19.4053 0.275547 18.8875 7.8125e-05 18.3334 0H16.2501C15.3296 0 14.5834 0.746211 14.5834 1.66668V3.75C14.5834 4.67047 15.3296 5.41668 16.2501 5.41668H18.3334C19.2539 5.41668 20.0001 4.67047 20.0001 3.75V1.66668C20.0006 1.33457 19.9013 1.00996 19.7151 0.735Z" fill="white" fill-opacity="0.96"/>
</svg>
