<svg width="16" height="21" viewBox="0 0 16 21" fill="none" xmlns="http://www.w3.org/2000/svg">
<path d="M15.6504 14.3999L15.3015 12.5065C15.2647 12.3104 15.1479 12.1302 14.9812 12.0144C13.5782 11.0851 12.5974 9.60392 12.2925 7.96382L12.0716 6.75985C11.6668 4.57579 9.96974 2.89706 7.82975 2.50076L7.71415 1.87673C7.61794 1.3753 7.32427 0.917162 6.91318 0.632322C6.49197 0.33132 5.97004 0.221365 5.4488 0.312874C4.38703 0.519204 3.68724 1.53955 3.88838 2.59311L4.00593 3.23834C3.38838 3.61919 2.85921 4.12506 2.45243 4.72927C1.6496 5.89167 1.34767 7.31157 1.60548 8.71135L1.82114 9.87939C2.13302 11.5489 1.74002 13.294 0.740068 14.6733C0.625735 14.8336 0.575932 15.0436 0.611181 15.2464L0.969825 17.128C1.02239 17.4041 1.22482 17.6324 1.491 17.7095C1.6076 17.7441 1.73251 17.7737 1.85728 17.8033C2.76358 18.0182 3.87163 18.1144 5.10239 18.0731L5.10899 18.0746C5.58788 19.097 6.50391 19.8274 7.58102 20.0828C8.06701 20.198 8.58957 20.2178 9.11879 20.1212C10.7949 19.8109 12.0138 18.4143 12.1264 16.7691C13.4649 16.3026 14.5762 15.7404 15.3728 15.1315C15.5949 14.9555 15.6963 14.6743 15.6504 14.3999ZM5.70909 1.79002C5.77439 1.77778 5.83504 1.78519 5.89427 1.79923C5.94675 1.81168 5.99782 1.83075 6.05224 1.8644C6.13985 1.9338 6.21311 2.03431 6.23926 2.15851L6.29025 2.44111C6.27535 2.44455 6.25417 2.44634 6.23126 2.45484C6.10374 2.46627 5.98775 2.48723 5.86512 2.50678C5.76385 2.52443 5.6675 2.55005 5.56466 2.57429C5.50752 2.5815 5.46197 2.59857 5.40312 2.61234L5.35383 2.32317C5.30825 2.07653 5.46905 1.83717 5.70909 1.79002ZM8.85026 18.6494C8.05967 18.7949 7.2933 18.5161 6.79523 17.9541C6.83779 17.9502 6.88033 17.9465 6.92431 17.9361C7.18101 17.9068 7.43933 17.8708 7.69742 17.8349C7.71218 17.8314 7.72522 17.8345 7.74658 17.8326C8.05543 17.7878 8.35935 17.7351 8.66486 17.6757C8.95559 17.6198 9.23975 17.5623 9.52544 17.4982C9.59891 17.4809 9.67897 17.4652 9.74584 17.4464C9.98099 17.3911 10.2094 17.3342 10.4395 17.271C10.4607 17.269 10.4836 17.2607 10.5048 17.2587C10.2468 17.9676 9.63441 18.5023 8.85026 18.6494Z" fill="white" fill-opacity="0.96"/>
</svg>
